<svg xmlns="http://www.w3.org/2000/svg" viewBox="0 0 500 400">
    <defs>
        <clipPath id="a">
    <path fill="none" d="M123.28,334.94c-1.21.3-1.54,8.66,0,9.68a11.69,11.69,0,0,0,5.32,1.39c3.83.22,7.39,1.71,9.46,1.71,3.2,0,5.19-1.22,4.59-3.77s-5.68-1.35-11.33-9.18c-.7-1-1.65-.58-2.37-.14-.89.53-1.63,1.54-2.93,1.63A2.65,2.65,0,0,1,123.28,334.94Z"/>
        </clipPath>
    </defs>
    <g style="isolation:isolate">
        <path fill="#cfecff" d="M72.89,349.07H431.2s41.19-131.07-3-188.14c-36.57-47.2-78.05-25.29-91.92-47.09-11.87-18.65-33.37-81.7-92.56-81.79s-81.14,32.4-92.44,63.59c-9.76,26.94-24.89,38.76-52.36,47.93C10.15,173.17,72.89,349.07,72.89,349.07Z" opacity=".5"/>
        <path fill="#cdecf1" d="M436.77,348.82c0,10.56-83.38,19.13-186.23,19.13S64.31,359.38,64.31,348.82s83.38-19.14,186.23-19.14S436.77,338.25,436.77,348.82Z"/>
        <path fill="#afd1f5" d="M179.93,259.48V333.4a7.38,7.38,0,1,0,14.76,0V259.48Z"/>
        <path fill="#d7e8fa" d="M187.3,339.75A6.36,6.36,0,0,1,181,333.4V260.52h12.69V333.4A6.36,6.36,0,0,1,187.3,339.75Z"/>
        <path fill="#f6c4cf" d="M187.3,339.75A6.36,6.36,0,0,1,181,333.4V307.7h12.69v25.7A6.36,6.36,0,0,1,187.3,339.75Z"/>
        <path fill="#fff" d="M183.9,334.89a1.62,1.62,0,0,1-1.62-1.62V260.06h3.25v73.21A1.62,1.62,0,0,1,183.9,334.89Z" opacity=".3"/>
        <rect width="14.76" height="3.41" x="179.93" y="259.48" style="mix-blend-mode:multiply" fill="#cde3fa" opacity=".5"/>
        <path fill="#77b2f2" d="M196.37,260.19a1.56,1.56,0,0,1-1.56,1.56h-15a1.56,1.56,0,0,1-1.55-1.56v-1.55a1.56,1.56,0,0,1,1.55-1.56h15a1.56,1.56,0,0,1,1.56,1.56Z"/>
        <path fill="#afd1f5" d="M232.34,259.48V333.4a7.39,7.39,0,0,0,14.77,0V259.48Z"/>
        <path fill="#d7e8fa" d="M239.72,339.75a6.36,6.36,0,0,1-6.34-6.35V260.52h12.69V333.4A6.35,6.35,0,0,1,239.72,339.75Z"/>
        <path fill="#ffdba3" d="M239.72,339.75a6.36,6.36,0,0,1-6.34-6.35V316.17h12.69V333.4A6.35,6.35,0,0,1,239.72,339.75Z"/>
        <path fill="#fff" d="M236.33,334.89a1.63,1.63,0,0,1-1.64-1.62V260.06H238v73.21A1.62,1.62,0,0,1,236.33,334.89Z" opacity=".3"/>
        <rect width="14.76" height="3.41" x="232.34" y="259.48" style="mix-blend-mode:multiply" fill="#cde3fa" opacity=".5"/>
        <path fill="#77b2f2" d="M248.79,260.19a1.56,1.56,0,0,1-1.56,1.56h-15a1.56,1.56,0,0,1-1.56-1.56v-1.55a1.56,1.56,0,0,1,1.56-1.56h15a1.56,1.56,0,0,1,1.56,1.56Z"/><path fill="#afd1f5" d="M206.13,259.48V333.4a7.38,7.38,0,0,0,14.76,0V259.48Z"/>
        <path fill="#d7e8fa" d="M213.51,339.75a6.36,6.36,0,0,1-6.34-6.35V260.52h12.69V333.4A6.36,6.36,0,0,1,213.51,339.75Z"/>
        <path fill="#83b9f3" d="M213.51,339.75a6.36,6.36,0,0,1-6.34-6.35v-8.74h12.69v8.74A6.36,6.36,0,0,1,213.51,339.75Z"/>
        <path fill="#fff" d="M210.11,334.89a1.62,1.62,0,0,1-1.62-1.62V260.06h3.25v73.21A1.62,1.62,0,0,1,210.11,334.89Z" opacity=".3"/><rect width="14.76" height="3.41" x="206.13" y="259.48" style="mix-blend-mode:multiply" fill="#cde3fa" opacity=".5"/><path fill="#77b2f2" d="M222.58,260.19a1.56,1.56,0,0,1-1.56,1.56H206a1.55,1.55,0,0,1-1.55-1.56v-1.55a1.55,1.55,0,0,1,1.55-1.56h15a1.56,1.56,0,0,1,1.56,1.56Z"/><rect width="2.07" height="74.4" x="252.43" y="273.03" fill="#3c5979"/><rect width="2.07" height="74.4" x="172.53" y="273.03" fill="#3c5979"/><path fill="#4c749f" d="M171,272.28H256a1.55,1.55,0,0,1,1.55,1.55v.11a1.55,1.55,0,0,1-1.55,1.55H171a1.55,1.55,0,0,1-1.55-1.55v-.1A1.56,1.56,0,0,1,171,272.28Z"/><path fill="#4c749f" d="M171,288.4H256a1.56,1.56,0,0,1,1.56,1.56v.1a1.56,1.56,0,0,1-1.56,1.56H171a1.55,1.55,0,0,1-1.55-1.55V290A1.56,1.56,0,0,1,171,288.4Z"/><path fill="#6ba0da" d="M257.54,346a2.56,2.56,0,0,1-2.59,2.51H172.08a2.51,2.51,0,1,1,0-5H255A2.56,2.56,0,0,1,257.54,346Z"/><polygon fill="#bf7968" points="122.86 331.11 130.82 330.09 130.1 335.86 123.56 337.42 122.86 331.11"/><g clip-path="url(#a)"><path fill="#1f2730" d="M123.28,334.94c-1.21.3-1.54,8.66,0,9.68a11.69,11.69,0,0,0,5.32,1.39c3.83.22,7.39,1.71,9.46,1.71,3.2,0,5.19-1.22,4.59-3.77s-5.68-1.35-11.33-9.18c-.7-1-1.65-.58-2.37-.14-.89.53-1.63,1.54-2.93,1.63A2.65,2.65,0,0,1,123.28,334.94Z"/></g><polygon fill="#bf7968" points="99.7 330.18 107.04 330.85 105.9 337.55 99.3 336.83 99.7 330.18"/><path fill="#1f2730" d="M106.71,336.83a1.37,1.37,0,0,0-1.44-.78,2.9,2.9,0,0,0-3-1.76c-2,.08-2.95,1.29-2.94,2.54-1.19.35-1.31.82-1.58,1.85-.34,1.32-.15,2.71-.59,4s-1.25,2.4-1.57,3.64c-.75,3,2.82,4.69,6.73,4.3,4.78-.49,4.53-3.08,4.48-5.82,0-1.41.13-2.83.12-4.23C106.87,339.57,107.34,337.83,106.71,336.83Z"/><path fill="#4c749f" d="M133.55,245c.63,19.09-.09,12.21.78,45.4.66,25-2.73,41.38-2.73,41.38-2,1.19-9.37.63-9.37.63-3.58-6.52-1.84-11.82-4.26-37.74-.76-8.14-1.27-27.46-2-27.44-1.34,0-4.06,23.86-4.18,25.91-1.46,26-3.9,39.77-3.9,39.77-2.73.91-9.85-.06-9.85-.06-2-10.54-2.7-16.58-2.56-44.48.15-29.09.16-30.55,3.41-43.64Z"/><path fill="#bf7968" d="M177.32,206c-.35-.35-1.53-1.47-2-.68a.71.71,0,0,0-.05.52,2.3,2.3,0,0,0-1.23-.84c-.58-.14-.93.28-.85.83a1.66,1.66,0,0,0-.3-.22,1.71,1.71,0,0,0-.78-.31c-.57,0-.67.6-.55,1.05a.88.88,0,0,0-.58-.17.51.51,0,0,0-.42.4c-.14.56.34,1.11.66,1.52.08.12.15.22.22.34a6.11,6.11,0,0,1-1.27.27,8.62,8.62,0,0,1-2.53-.17,5.63,5.63,0,0,0-2.08-.19c-1.5.22-3.14,1.5-4.48,2.11-1.51.71-3.05,1.39-3.05,1.39l2.07,6.87c2.3-1.8,4.49-4.39,5.85-4.8s3-.06,4.43,0c2.16.07,3.13-.07,4.15-.63a12.17,12.17,0,0,0,3-2.06,3.85,3.85,0,0,0,1.28-2.61A4.7,4.7,0,0,0,177.32,206Z"/><path fill="#bf7968" d="M108.68,188.38l1.27-10.7a37.78,37.78,0,0,1,0-4.36c.67-6.24,7-11.16,12-10.55s7.82,5.54,6.92,11.75c-.84,5.79-5.29,11.34-9.63,10.52l.35,3.94C118,192,108.39,191.66,108.68,188.38Z"/><path fill="#1f2730" d="M109.73,179.57c-.71-.54-2-1.63-2.54-4.93-1-5.27-.67-11.12,3.21-14.79,6-5.67,15.6-4,19.63.87,2.92,3.56,3.26,8.35.89,9.08-4.13,1.28-5.65-3.46-7.57-3.87-3.35-.7-5.78,2.27-8.53,6.91-.08.14-2.44,2.93-2.44,2.93A14.94,14.94,0,0,1,109.73,179.57Z"/><path fill="#bf7968" d="M110.76,173.78a2.12,2.12,0,1,0,4.23-.19,2.1,2.1,0,0,0-2.2-2A2.12,2.12,0,0,0,110.76,173.78Z"/><path fill="#9bc5f2" d="M161.12,210.44s-10.36,2.81-13.61,2.9c-6.26.18-6.33-21.5-23.93-24.44-.94-.15-4-.73-4-.73A6.33,6.33,0,0,1,115,190c-5,.13-6.23-1.66-6.23-2.38-4.48,1.17-10.1,3.36-13.16,6-3.45,3-9.1,10.1-13.45,23.76-.63,2-2,11.37,2.45,13.32,4.12,1.83,10.37-1.35,12.77-6.12,0,0-8,54.64-5.78,68.21.39,2.34,16.16,3.5,29.13,3,.87,0,1.52-29.31,1.52-29.31s1.89,29.15,2.3,29.12c6.87-.47,12.56-1.53,14.29-3.35,0,0-4.77-66.08-5.13-72.31,2.21,2.83,5.51,6.9,9.28,8,5.88,1.74,14.42-3,20.27-12.09A11.27,11.27,0,0,1,161.12,210.44Z"/><path fill="#77b2f2" d="M97.62,224.48a34.64,34.64,0,0,0,2-23.21A33.59,33.59,0,0,0,97.24,195c-.08-.16-.31,0-.23.13a34.39,34.39,0,0,1,2.56,22.95,33.11,33.11,0,0,1-2.18,6.28c-.07.16.15.29.23.14Z"/><path fill="#77b2f2" d="M129.55,194c2,3.69,2.52,7.62,2.86,11.53.35,4.16,1,14.42,1.05,14.72,0,.12.28.12.27,0-.32-4.23-.21-3.63-.53-7.85a101.86,101.86,0,0,0-1.21-12,23,23,0,0,0-2.18-6.41c-.06-.11-.32-.06-.26,0Z"/><path fill="#77b2f2" d="M97.6,224.48A12,12,0,0,0,98,220.7a11.54,11.54,0,0,0-.46-3.74.14.14,0,0,0-.26.08,11,11,0,0,1,.44,3.66,11.94,11.94,0,0,1-.39,3.72c-.06.15.19.22.25.06Z"/><path fill="#77b2f2" d="M86.3,212.81a14.55,14.55,0,0,1,6.18-1.54.14.14,0,0,0,0-.27,15.13,15.13,0,0,0-6.32,1.58c-.15.08,0,.31.14.23Z"/><path fill="#fff" d="M106.54,188.28c.76-.23,1.51-.45,2.23-.64,0,.72,1.18,2.51,6.23,2.38a6.33,6.33,0,0,0,4.54-1.85l1.93.36-3.93,14.62Z"/><path fill="#77b2f2" d="M108.82,243.94c1.59,0,2.78-.11,3-.38.45-.64.14-3.19.1-3.48a.18.18,0,0,0-.16-.15l-12.88-.27V240l12.72.27a7.87,7.87,0,0,1,0,3.1c-.39.46-6.78.19-12.73-.35a.17.17,0,0,0-.18.16.16.16,0,0,0,.16.17C100.17,243.49,105.43,243.94,108.82,243.94Z"/><path fill="#77b2f2" d="M122.25,266.72h0a.17.17,0,0,0,.17-.17c-.77-46.53-4.16-61.49-4.19-61.63a.18.18,0,0,0-.2-.14.19.19,0,0,0-.13.21c0,.14,3.42,15.08,4.18,61.56A.17.17,0,0,0,122.25,266.72Z"/><path fill="#77b2f2" d="M117,204.45a.16.16,0,0,0,.13-.06.17.17,0,0,0,0-.24l-9.34-7.3,1.54-1.33a.14.14,0,0,0,.06-.14.15.15,0,0,0-.09-.14l-3.75-2,.75-4.46a.17.17,0,0,0-.14-.19.16.16,0,0,0-.19.14l-.77,4.57a.16.16,0,0,0,.08.18l3.65,1.92-1.51,1.31a.14.14,0,0,0,0,.13.13.13,0,0,0,.06.12l9.5,7.43A.19.19,0,0,0,117,204.45Z"/><path fill="#77b2f2" d="M118.88,204.45a.16.16,0,0,0,.12-.06l6.24-7.75a.17.17,0,0,0,0-.24l-1.88-1.52,1.9-2.51a.15.15,0,0,0,0-.2L123,189.34a.15.15,0,0,0-.23,0,.16.16,0,0,0,0,.23l2.14,2.73L123,194.8a.18.18,0,0,0,0,.24l1.87,1.52-6.13,7.62a.17.17,0,0,0,0,.23A.15.15,0,0,0,118.88,204.45Z"/><path fill="#bf7968" d="M108.77,209c0-.21.22-.54.29-.77a1.6,1.6,0,0,0-.13-1.52c-.36-.4-.82-.27-1.22,0,.43-.65,1-1.66.69-2.32s-.77-.4-1.19-.17a2.15,2.15,0,0,0,.27-2c-.32-.57-.85-.45-1.35-.18a7.88,7.88,0,0,0-1.77,1.83,7.31,7.31,0,0,1-3.37,1.71,6.83,6.83,0,0,1-.91.27c-.41.07-.33,0-.13-.34.3-.55.63-1.08,1-1.6s1.11-1.39.63-2-1.16-.08-1.57.26a9.48,9.48,0,0,0-2.38,2.43,14.32,14.32,0,0,0-.92,3.32,5.14,5.14,0,0,1-.86,1.64,8.93,8.93,0,0,1-2.07,1.67c-1.07.57-1.53,2.87-.79,4.48.66,1.44,2.52,2.4,3.55,1.94.68-.3.91-1,1.57-1.6a5,5,0,0,1,2.42-1.24c1-.31,2.1-.29,3.12-.61a12,12,0,0,0,4.65-3c.42-.41,1.07-1,.88-1.67C109.07,209.27,108.8,209.1,108.77,209Z"/><path fill="#ffcd7f" d="M220.65,88.51c-5.66,8.62-15.16,12.38-17.48,10.86-1.79-1.18-2.65-11.74,3-20.36s15.3-12.28,17.48-10.85S226.3,79.89,220.65,88.51Z"/><path fill="#ffcd7f" d="M190.76,103.94c2.81,9.92-.57,19.56-3.25,20.32-2.06.58-10.6-5.69-13.41-15.6s.75-19.62,3.25-20.32S188,94,190.76,103.94Z"/><path fill="#ffcd7f" d="M204.62,115.39c-10.13,1.88-17.28,9.18-16.77,11.92.39,2.11,9.79,7,19.93,5.11s17.24-9.36,16.77-11.92S214.75,113.51,204.62,115.39Z"/><path fill="#ffcd7f" d="M174.57,137.12c4.14,9.44,2.12,19.45-.42,20.57-2,.87-11.29-4.17-15.44-13.6s-2-19.53.42-20.57S170.42,127.68,174.57,137.12Z"/><path fill="#ffcd7f" d="M188.77,146.5c-9.78,3.26-15.85,11.48-15,14.12.67,2,10.66,5.57,20.44,2.31s15.79-11.65,15-14.12S198.55,143.24,188.77,146.5Z"/><path fill="#ffcd7f" d="M160.35,181.4c5.27,8.86,4.48,19,2.1,20.47-1.85,1.09-11.72-2.76-17-11.62s-4.34-19.14-2.1-20.47S155.08,172.54,160.35,181.4Z"/><path fill="#ffcd7f" d="M175.72,190c-9.31,4.43-14.33,13.32-13.14,15.83.92,1.94,11.27,4.23,20.58-.2s14.25-13.49,13.13-15.84S185,185.55,175.72,190Z"/><path fill="#ffcd7f" d="M149.9,229.88c6.84,7.72,8,17.87,5.91,19.71-1.61,1.43-12-.51-18.86-8.22s-7.85-18-5.91-19.71S143.06,222.17,149.9,229.88Z"/><path fill="#ffcd7f" d="M166.76,229.44c-8.3,6.1-11.57,15.79-9.92,18,1.27,1.73,11.86,2,20.17-4.06s11.46-15.93,9.93-18S175.07,223.35,166.76,229.44Z"/><path fill="#ffcd7f" d="M224.55,121.89a89.47,89.47,0,0,0,18.11-9.08c.87-.56,0-1.89-.9-1.33a87.93,87.93,0,0,1-17.74,8.9.8.8,0,0,0,.53,1.51Z"/><path fill="#ffcd7f" d="M222.62,122.87A48.69,48.69,0,0,0,239.39,120a.8.8,0,0,0-.53-1.51,47.59,47.59,0,0,1-16.37,2.83c-1,0-.9,1.59.13,1.6Z"/><path fill="#ffcd7f" d="M178.51,89.45a43.39,43.39,0,0,1-1.11-17.09c.13-1-1.44-1.31-1.58-.28A45.42,45.42,0,0,0,177,90c.27,1,1.78.46,1.51-.53Z"/><path fill="#ffcd7f" d="M178.78,91.46a37.13,37.13,0,0,1,2.55-16.25c.38-.95-1.07-1.64-1.45-.68a39,39,0,0,0-2.7,17.06.8.8,0,0,0,1.6-.13Z"/><path fill="#ffcd7f" d="M222.59,72a56.36,56.36,0,0,1,10.78-15.86c.71-.74-.51-1.78-1.22-1a58,58,0,0,0-11,16.22.81.81,0,0,0,1.46.68Z"/><path fill="#ffcd7f" d="M223.51,71.37a45,45,0,0,1,6.06-5.81.82.82,0,0,0,.21-1.12.81.81,0,0,0-1.11-.21,47.18,47.18,0,0,0-6.38,6.1c-.68.77.54,1.82,1.22,1Z"/><path fill="#ffcd7f" d="M206.84,150.7a45.31,45.31,0,0,0,14.5-9.93c.72-.74-.5-1.78-1.22-1a43.37,43.37,0,0,1-13.8,9.46c-.95.41-.42,1.92.52,1.51Z"/><path fill="#ffcd7f" d="M207.89,150.84a38.9,38.9,0,0,0,12.26-4.74c.89-.53,0-1.85-.9-1.32a36.56,36.56,0,0,1-11.48,4.46.8.8,0,1,0,.12,1.6Z"/><path fill="#ffcd7f" d="M161.43,125.26a29,29,0,0,1-2.62-13.54.82.82,0,0,0-.87-.74.83.83,0,0,0-.73.86,30,30,0,0,0,2.71,14c.43.93,1.94.41,1.51-.53Z"/><path fill="#ffcd7f" d="M160.75,125.78a26.74,26.74,0,0,1-5.61-10.94c-.25-1-1.76-.47-1.52.52a27.9,27.9,0,0,0,5.8,11.32.84.84,0,0,0,1.12.21.8.8,0,0,0,.21-1.11Z"/><path fill="#ffcd7f" d="M194.82,191.15c5.4-2.27,9.47-6.54,13.39-10.76.7-.76-.52-1.79-1.22-1-3.71,4-7.58,8.13-12.7,10.29-.94.4-.42,1.92.53,1.51Z"/><path fill="#ffcd7f" d="M195.4,191.84A26,26,0,0,0,206.81,187c.82-.62-.08-1.95-.9-1.32a24.61,24.61,0,0,1-10.64,4.62c-1,.17-.89,1.76.13,1.59Z"/><path fill="#ffcd7f" d="M144.4,170.44c-4.37-4.39-5.17-10.84-5.87-16.7-.12-1-1.72-.9-1.59.13.75,6.33,1.72,13.06,6.42,17.79.73.73,1.77-.5,1-1.22Z"/><path fill="#ffcd7f" d="M145.13,171.26a19.63,19.63,0,0,1-1.38-12.74c.24-1-1.34-1.28-1.57-.28a20.94,20.94,0,0,0,1.43,13.55.82.82,0,0,0,1,.49.81.81,0,0,0,.5-1Z"/><path fill="#ffcd7f" d="M185.44,227.13a34.61,34.61,0,0,0,12-11.07c.57-.85-.65-1.9-1.22-1a33.45,33.45,0,0,1-11.68,10.78c-.9.5,0,1.82.9,1.33Z"/><path fill="#ffcd7f" d="M185.93,227.78a25.37,25.37,0,0,0,11.07-6,.82.82,0,0,0-.09-1.13.82.82,0,0,0-1.13.09,23.72,23.72,0,0,1-10.38,5.52c-1,.25-.46,1.76.53,1.52Z"/><path fill="#ffcd7f" d="M132.92,223.57c-5.16-3-7.4-8.88-9.19-14.28a.8.8,0,0,0-1.51.53c1.94,5.87,4.45,11.93,10,15.21.89.52,1.57-.94.68-1.46Z"/><path fill="#ffcd7f" d="M132.25,222.54c-2.37-3.5-2.61-7.89-2.83-12a.8.8,0,0,0-1.6.13c.23,4.38.57,9,3.11,12.76a.8.8,0,0,0,1.32-.9Z"/><path fill="#ffdba3" d="M205,98.58a56,56,0,0,1,9.26-16.21c.65-.8-.57-1.84-1.22-1a57.27,57.27,0,0,0-9.49,16.57c-.35,1,1.1,1.65,1.45.68Z"/><path fill="#ffdba3" d="M189.74,128.61a69.55,69.55,0,0,0,21.58-2.46c1-.28.46-1.79-.53-1.52A67.84,67.84,0,0,1,189.62,127c-1-.05-.89,1.55.12,1.6Z"/><path fill="#ffdba3" d="M188.24,123.52A64.5,64.5,0,0,1,183,106.26c-.15-1-1.75-.9-1.59.13a65.48,65.48,0,0,0,5.37,17.66c.43.92,1.94.4,1.51-.53Z"/><path fill="#ffdba3" d="M175.54,161.9c7.21.17,14.08-2.42,20.43-5.61.92-.47,0-1.79-.9-1.33-6.11,3.08-12.73,5.5-19.66,5.34-1,0-.9,1.58.13,1.6Z"/><path fill="#ffdba3" d="M172.76,156.31c-5.88-5.67-7.92-13.83-9.8-21.49-.24-1-1.75-.46-1.51.53,2,8,4.16,16.28,10.27,22.18.75.71,1.78-.51,1-1.22Z"/><path fill="#ffdba3" d="M164.62,206.91c5.48-2.08,11.14-4.31,15.14-8.77.69-.77-.53-1.81-1.22-1-3.8,4.24-9.24,6.33-14.44,8.29-1,.37-.44,1.88.52,1.52Z"/><path fill="#ffdba3" d="M161.17,200.89A35.28,35.28,0,0,1,152,184c-.23-1-1.74-.47-1.51.53a36.55,36.55,0,0,0,9.64,17.55c.72.74,1.75-.48,1-1.21Z"/><path fill="#ffdba3" d="M159.18,247.78a50.11,50.11,0,0,0,14.62-11.07c.69-.76-.53-1.8-1.23-1a47.57,47.57,0,0,1-13.92,10.59c-.91.46-.39,2,.53,1.52Z"/><path fill="#ffdba3" d="M155.05,247.91A42.29,42.29,0,0,1,141,233.12c-.51-.9-1.83,0-1.32.9a43.81,43.81,0,0,0,14.73,15.34c.87.55,1.54-.91.68-1.45Z"/><path fill="#ffcd7f" d="M163.78,344.9a1.27,1.27,0,0,1-1.25-1c-10.31-49.17-10.55-97.78-.72-144.47a318.91,318.91,0,0,1,40.63-102.2,1.28,1.28,0,0,1,2.18,1.36C179.21,139.34,140.28,225.34,165,343.36a1.27,1.27,0,0,1-1,1.51Z"/><path fill="#ffa18a" d="M288.69,328.06H279c.06-1.12.11-2.22.11-3.35a93.52,93.52,0,0,0-.94-11.46,46.68,46.68,0,0,0-2.54-10.71,38,38,0,0,1-1.88-5.6,15.62,15.62,0,0,1-.27-4.52l1.4-14.9,12.41,14.9a20.59,20.59,0,0,0,.55,8.05c.48,1.42,1,2.8,1.36,4.26a31.35,31.35,0,0,1,.71,4.3c.6,6.09-.3,12.23-1.1,18.25C288.77,327.54,288.72,327.8,288.69,328.06Z"/><path fill="#9bc5f2" d="M278.85,328.06c-.11-1-.22-1.92-.3-2.88a79.55,79.55,0,0,0,11-.12s-.13,1.34-.28,3Z"/><path fill="#101418" d="M267.44,347.5a4.34,4.34,0,0,1,2.07-2.73c1.88-1.27,7.75-2.94,8.38-3.5,1.2-1.07,1.42-2.82,1.36-4.37-.1-3.27-.53-6.54-.8-9.8,0,0,4.13,1,11.2-.14l-.72,8.77a28,28,0,0,0-.14,4.29,29.46,29.46,0,0,0,.62,3.72,21.26,21.26,0,0,1,.54,3.72v.69c-.78.79-2.62.72-3.49.68a56.79,56.79,0,0,0-6.52-.28c-2.86.18-5.68.64-8.54.76a15.86,15.86,0,0,1-2.79-.12A1.51,1.51,0,0,1,267.44,347.5Z"/><path fill="#ffa18a" d="M305.29,328.06h-9.7c.07-1.12.12-2.22.11-3.35a93.52,93.52,0,0,0-.94-11.46,47.73,47.73,0,0,0-2.53-10.71,39.18,39.18,0,0,1-1.88-5.6,15.28,15.28,0,0,1-.28-4.52h13.8c-.16,2.72-.32,5.43.56,8.05.49,1.42,1,2.8,1.37,4.26a32.93,32.93,0,0,1,.7,4.3c.61,6.09-.3,12.23-1.1,18.25C305.37,327.54,305.33,327.8,305.29,328.06Z"/><path fill="#9bc5f2" d="M295.45,328.06l-.3-2.88a79.55,79.55,0,0,0,11-.12l-.27,3Z"/><path fill="#1f2730" d="M284,347.5a4.35,4.35,0,0,1,2.08-2.73c1.88-1.27,7.74-2.94,8.37-3.5,1.21-1.07,1.43-2.82,1.37-4.37-.12-3.27-.53-6.54-.81-9.8,0,0,4.14,1,11.2-.14l-.72,8.77a26.75,26.75,0,0,0-.13,4.29,27.76,27.76,0,0,0,.62,3.72,22.24,22.24,0,0,1,.54,3.72v.69c-.78.79-2.63.72-3.5.68a56.69,56.69,0,0,0-6.52-.28c-2.85.18-5.67.64-8.53.76a16,16,0,0,1-2.8-.12A1.52,1.52,0,0,1,284,347.5Z"/><path fill="#ffa18a" d="M241.78,187.45c.22.29.47.58.71.86l-.24-.23c-.26-.2-.82-.89-1.24-.75s-.14.77,0,1.06a15.46,15.46,0,0,0,1.36,2.32,13.32,13.32,0,0,0,2.2,1.75,16.67,16.67,0,0,1,2,2c1.35,1.5,3.43,3,3.64,5.11,1-.29,5.49-2.2,5.48-2.22a17,17,0,0,0-1.14-1.67,10.13,10.13,0,0,1-1-1.94,10.65,10.65,0,0,1-.58-3.95,5.27,5.27,0,0,0-.56-2.82,10.77,10.77,0,0,0-1-1.42c-.2-.27-.59-.86-1-.92-.67-.12-.64.81-.52,1.23a4.88,4.88,0,0,0,.29.66,4.75,4.75,0,0,1,.21.54c.24,1-.2.54-.6.27s-1.24-1-1.7-1.36c-1.1-.92-2.14-1.89-3.19-2.86-.34-.32-1-1-1.32-.29a1.13,1.13,0,0,0,0,.68c-.38-.43-1-.92-1.46-.48a.64.64,0,0,0,0,.7c.18.41.41.81.61,1.22a8.32,8.32,0,0,0,.72,1.27,11.32,11.32,0,0,0,.9.93c.36.37.7.76,1,1.15a8.58,8.58,0,0,1-3-2.32c-.26-.35-1-1.81-1.59-1.16S241.41,187,241.78,187.45Z"/><path fill="#4c749f" d="M287.38,271.39l-12-4.08-3.15,21.52s7.51,2.24,12.66,2.05Z"/><path fill="#f6c4cf" d="M255.56,210.16c2.38,3.06,4.91,7,8.91,7.51s8.14-1.25,11.6-3.39c.64-.4,2.92-1.57,3.58-2a26.11,26.11,0,0,0,0,8.57c.72,6.22-1.65,10.57-3.17,16.55s-2.93,12-4.21,18.13q-3.81,18.07-6.09,36.45c3,.45,8.43,1.23,8.43,1.23a106.12,106.12,0,0,1,4.79-19.34s-.35,19.87.43,20c10.9,1.48,22.13,2.29,32.68-1.81l-1.44-27.83c-.42-8.11-.83-16.22-1.9-24.26a33.59,33.59,0,0,1,2.59,4.08c2.88-1.82,13.23-9.33,14.69-11.37,2.46-3.45,1.7-6.78.46-10.56-.83-2.54-2-5-2.76-7.51s-5-13.86-10-18.26c-4.68-4-9.58-3.93-17.53-3.39-4.65.33-8.62-.27-13.79,1.88-2.62,1.09-5.25,3.81-8.38,6.62-4.39,3.92-6.23,7.49-9.75,4.34-3.26-2.93-6.45-7.59-9.57-10.67-2.45,1.49-3.46,2.31-6.24,3.05C251.62,202.06,252.63,206.38,255.56,210.16Zm50.73,17.47s.45-3.25.45-3.28c.86-4.54,2.26-7.72,3.55-12.13,1.2,4.89,5,10,8,14.1-1.14.93-8.3,9.73-10.1,11.71C307.54,234.45,306.5,231.74,306.29,227.63Z"/><path fill="#fff" d="M287.67,205.72c-2.88-.65,2.08-10.39,3.68-12.6l1.9-.05,1.57,0s9-.52,11.77-.11C305.41,197.19,291.34,206.55,287.67,205.72Z"/><path fill="#f7a8b9" d="M279.41,273.29a.16.16,0,0,0,.17-.14c.11-1,2.87-25.44,4.37-32.33,1.37-6.36,1.31-12.87,1.26-19.16,0-1.18,0-2.34,0-3.49,0-7.83,2.18-11.87,2.21-11.91a.17.17,0,0,0-.3-.16s-2.24,4.15-2.24,12.07c0,1.15,0,2.31,0,3.49.05,6.28.11,12.77-1.26,19.09-1.49,6.9-4.26,31.33-4.37,32.37a.15.15,0,0,0,.15.17Z"/><path fill="#ffa18a" d="M303.23,185c.16-1.47.33-2.45.33-2.45a3.51,3.51,0,0,1-2.82-2.6s-1.77-12.3-6-12.76c-5-.54-7.24.78-8.23,5.62-.42,2.06-1.5,2.76-2.57,3.67a.65.65,0,0,0,.47,1.12l.73,0a.32.32,0,0,1,.28.32,16,16,0,0,0,.37,3.89c.68,2.76.31,5.62,5.08,5.57.56,0,1.1-.06,1.63-.11a49,49,0,0,1-1.21,8.27c-.12.52-.21,1.11-.21,1.11,1.75,2.27,7.48,1.41,10-.86,1-.91,2.52-2.35,2.46-2.64A27,27,0,0,1,303.23,185Z"/><polygon fill="#96d6e0" points="269.85 207.71 264.94 212.22 237.26 182.12 242.17 177.6 269.85 207.71"/><path fill="#4c749f" d="M241.85,182.18A34.8,34.8,0,1,1,243.92,133,34.83,34.83,0,0,1,241.85,182.18Zm-44.7-48.62a31.25,31.25,0,1,0,44.15,1.86A31.31,31.31,0,0,0,197.15,133.56Z"/><path fill="#3c5979" d="M309.94,256.06h0a7,7,0,0,1-10.08-.62l-39.34-46.29a1.11,1.11,0,0,1,.1-1.54l4.94-4.54a1.12,1.12,0,0,1,1.53,0l43,42.84A7,7,0,0,1,309.94,256.06Z"/><path fill="#9bc5f2" d="M241.3,135.42a31.25,31.25,0,1,1-44.15-1.86A31.27,31.27,0,0,1,241.3,135.42Z" opacity=".3"/><path d="M217.31,130.25c-.09.17-1.5.28-1.66.31a22.75,22.75,0,0,0-3.46.87,45.48,45.48,0,0,0-4.39,1.79c-5.93,3.35-10.67,8-13.22,14.41a33.49,33.49,0,0,0-2,9.94,40.3,40.3,0,0,0,1.11,8.31c.15.52.3,1,.43,1.56.09.33-.32.66-.53.29-.24.08-1.68-3.6-1.8-3.94a25.36,25.36,0,0,1,0-17.08c2-5.55,5.57-9.67,10.19-13.11a32.1,32.1,0,0,1,6.84-3.22,20.12,20.12,0,0,1,5.61-1c.83-.06,1.68,0,2.52,0,.51,0,1,.75.28.9Z" style="mix-blend-mode:screen" fill="#fff" opacity=".2"/><path fill="#ffa18a" d="M303.52,251.68a9.9,9.9,0,0,0,.73-.85,2.68,2.68,0,0,1-.18.28c-.16.29-.73,1-.52,1.35s.78,0,1-.19a15,15,0,0,0,2.05-1.74,12.16,12.16,0,0,0,1.37-2.47,19.64,19.64,0,0,1,1.66-2.32c1.24-1.58,2.32-3.88,4.41-4.45-.46-1-3.1-5-3.12-5a17.41,17.41,0,0,0-1.44,1.41,9.91,9.91,0,0,1-1.75,1.32,10.93,10.93,0,0,1-3.8,1.22,5.48,5.48,0,0,0-2.68,1,11,11,0,0,0-1.23,1.23c-.22.25-.75.74-.75,1.11,0,.67.92.49,1.31.3a6.17,6.17,0,0,0,.6-.39,3.18,3.18,0,0,1,.5-.29c1-.42.56.1.38.54s-.78,1.39-1.07,1.9c-.72,1.24-1.5,2.43-2.27,3.62-.27.4-.87,1.17-.07,1.36a1,1,0,0,0,.67-.09c-.35.45-.73,1.19-.21,1.54a.65.65,0,0,0,.68-.09c.38-.24.74-.54,1.11-.8a7.75,7.75,0,0,0,1.12-.94,10.61,10.61,0,0,0,.77-1c.3-.42.64-.82,1-1.22a8.63,8.63,0,0,1-1.79,3.3c-.3.33-1.61,1.26-.88,1.77S303.09,252.13,303.52,251.68Z"/><polygon fill="#f7a8b9" points="303.88 208.25 296.69 207.53 296.16 208.74 303.16 209.67 303.88 208.25"/><path fill="#f6c4cf" d="M307.45,238.55a12.44,12.44,0,0,1,2.66,2.52,15.09,15.09,0,0,1,1.66,3l3.61-2.48-4.19-7Z"/><path fill="#1f2730" d="M312.39,173.33a3.46,3.46,0,0,0-2.8-.53,9.37,9.37,0,0,0-.31-5.58,12.14,12.14,0,0,0-6.84-6.59c-6.68-2.58-7.27.54-10.94.35-1.32-.06-2.49-.56-3.68.24A4.65,4.65,0,0,0,285.9,165c0,4.84,3.86,3.74,5.86,5.46a11.2,11.2,0,0,1,2.67,4.15c.67,1.94,2.81,2.73,3.69,4.57s1.25,4.9,2.86,6.36c1.27,1.14,4.25,0,5.34-1.43a4.49,4.49,0,0,0,3.4.5c1.85-.43,3.25-2.57,4.08-5.22C314.7,176.49,313.64,174.15,312.39,173.33Z"/><path fill="#ffa18a" d="M387.13,187.2a31,31,0,0,0-5.39-7.16c-.7-.63-3.82-4.26-4.51-3.52-1.05,1.13,1.34,3.23,1.94,4a7.4,7.4,0,0,1,1.27,2.94,5.25,5.25,0,0,0-.95-.87c-.44-.32-1.26-.88-1.82-.44s-.2,1.38,0,1.91a9.3,9.3,0,0,1,.56,1.79,7.45,7.45,0,0,0,.29,1.42,9.68,9.68,0,0,0,1.9,2.74,17.72,17.72,0,0,0,2.68,2.14,7.72,7.72,0,0,1,2.14,3.41c.4.95.8,1.88,1.2,2.82l3.81-5.89C389.23,190.74,388.2,189,387.13,187.2Z"/><path fill="#3c5979" d="M384.21,196.55l-38,14.09a1.3,1.3,0,0,1-1.67-.77L323.9,154.24a1.31,1.31,0,0,1,.77-1.68l38-14.09a1.32,1.32,0,0,1,1.68.77L385,194.87A1.29,1.29,0,0,1,384.21,196.55Z"/><path fill="#ebf3fc" d="M381.37,193.81l-35,13a.34.34,0,0,1-.44-.2l-19.06-51.42a.34.34,0,0,1,.21-.44l35-13a.36.36,0,0,1,.45.2l19.05,51.42A.34.34,0,0,1,381.37,193.81Z"/><path fill="#4c749f" d="M361.68,146.11a.22.22,0,0,1-.13.3l-20.81,7.7a.23.23,0,0,1-.3-.13l-.08-.22a.23.23,0,0,1,.14-.29l20.81-7.7a.21.21,0,0,1,.29.13Zm.56,1.5a.23.23,0,0,0-.29-.13l-12.78,4.73a.23.23,0,0,0-.14.3l.08.21a.23.23,0,0,0,.29.14l12.78-4.74a.23.23,0,0,0,.14-.29Zm-19.36,9.13a.26.26,0,0,0-.3-.15l-10.83,4a.24.24,0,0,0-.14.3l.08.21a.23.23,0,0,0,.29.14l10.84-4a.24.24,0,0,0,.13-.3Zm-3.72-2.53a.22.22,0,0,0-.29-.13l-8.39,3.1a.24.24,0,0,0-.14.3l.08.21a.24.24,0,0,0,.3.14l8.39-3.11a.23.23,0,0,0,.13-.3Zm8.75-1.29a.23.23,0,0,0-.29-.14l-16.5,6.12a.21.21,0,0,0-.14.29l.07.22a.25.25,0,0,0,.3.14l16.51-6.12a.23.23,0,0,0,.14-.29Z"/><path fill="#4c749f" d="M365.8,157.23a.25.25,0,0,1-.13.3l-18.39,6.8a.22.22,0,0,1-.29-.14l-.08-.21a.21.21,0,0,1,.13-.29l18.39-6.81a.23.23,0,0,1,.29.14Zm.55,1.5a.23.23,0,0,0-.29-.14L335.23,170a.23.23,0,0,0-.14.29l.08.22a.23.23,0,0,0,.3.14l30.83-11.42a.22.22,0,0,0,.13-.29Zm-20.63,5.68a.24.24,0,0,0-.3-.13l-10.83,4a.25.25,0,0,0-.14.3l.08.22a.26.26,0,0,0,.3.13l10.83-4a.24.24,0,0,0,.14-.3Zm20.63-5.68a.23.23,0,0,0-.29-.14L335.23,170a.23.23,0,0,0-.14.29l.08.22a.23.23,0,0,0,.3.14l30.83-11.42a.22.22,0,0,0,.13-.29Zm-12,6.39a.24.24,0,0,0-.3-.14l-18.22,6.75a.22.22,0,0,0-.13.29l.08.21a.22.22,0,0,0,.29.14l18.22-6.74a.24.24,0,0,0,.13-.3Z"/><path fill="#4c749f" d="M369.92,168.34a.25.25,0,0,1-.14.3l-4.27,1.58a.23.23,0,0,1-.29-.14l-.07-.21a.22.22,0,0,1,.13-.3l4.26-1.57a.22.22,0,0,1,.29.13Zm.55,1.5a.24.24,0,0,0-.3-.13l-23,8.49a.26.26,0,0,0-.14.31l.09.21a.23.23,0,0,0,.29.14l23-8.5a.23.23,0,0,0,.14-.3Zm-6.57.48a.23.23,0,0,0-.29-.13l-24.9,9.22a.23.23,0,0,0-.14.29l.08.22a.22.22,0,0,0,.29.13l24.9-9.21a.23.23,0,0,0,.14-.3ZM345.83,179a.23.23,0,0,0-.29-.13l-6.2,2.29a.22.22,0,0,0-.13.29l.08.22a.22.22,0,0,0,.29.14l6.2-2.3a.23.23,0,0,0,.14-.29Zm3.65.6a.21.21,0,0,0-.29-.13L340,182.84a.23.23,0,0,0-.14.29l.08.22a.22.22,0,0,0,.3.13l9.21-3.42a.21.21,0,0,0,.14-.28Z"/><path fill="#4c749f" d="M374.34,180.32a.22.22,0,0,1-.13.29l-15.63,5.79a.23.23,0,0,1-.3-.14l-.08-.21a.24.24,0,0,1,.14-.3L374,180a.24.24,0,0,1,.3.14Zm.56,1.5a.22.22,0,0,0-.29-.14l-7.5,2.78a.23.23,0,0,0-.14.29l.09.21a.23.23,0,0,0,.3.14l7.48-2.77a.24.24,0,0,0,.14-.3ZM357,186.49a.23.23,0,0,0-.29-.14l-13.58,5a.24.24,0,0,0-.14.3l.08.21a.24.24,0,0,0,.3.14L357,187a.23.23,0,0,0,.14-.29Zm8.67-1.27a.24.24,0,0,0-.3-.13l-21.61,8a.23.23,0,0,0-.13.29l.08.23a.23.23,0,0,0,.3.13l21.6-8a.22.22,0,0,0,.14-.29Z"/><path fill="#4c749f" d="M378.14,190.57a.23.23,0,0,1-.13.3l-25.44,9.41a.24.24,0,0,1-.31-.13l-.07-.21a.23.23,0,0,1,.14-.3l25.44-9.42a.22.22,0,0,1,.29.13Zm.56,1.5a.23.23,0,0,0-.29-.13l-11.55,4.27a.25.25,0,0,0-.14.3l.09.21a.22.22,0,0,0,.29.13l11.54-4.27a.23.23,0,0,0,.14-.29Zm-27.77,8.33a.22.22,0,0,0-.28-.14l-3.71,1.37a.24.24,0,0,0-.14.3l.08.21a.22.22,0,0,0,.29.14l3.71-1.37a.23.23,0,0,0,.14-.29ZM365.49,197a.22.22,0,0,0-.3-.13l-17.62,6.52a.24.24,0,0,0-.14.3l.09.21a.23.23,0,0,0,.29.14l17.63-6.52a.25.25,0,0,0,.13-.3Zm-7.77,4.84a.23.23,0,0,0-.3-.14l-9.21,3.41a.23.23,0,0,0-.14.29l.08.21a.23.23,0,0,0,.3.14l9.21-3.41a.23.23,0,0,0,.14-.29Z"/><path fill="#ffa18a" d="M334.2,184.33c.07-.4.39-1.46,1-1.09s.46,2.07.54,2.69A6,6,0,0,0,338,189.7a4.91,4.91,0,0,1-.23-1.27c0-.54-.07-1.53.6-1.77s1.28.58,1.62,1a9.74,9.74,0,0,0,1.21,1.43,7.58,7.58,0,0,1,1,1,9.72,9.72,0,0,1,1.3,3.08,16.41,16.41,0,0,1,.37,3.41,7.91,7.91,0,0,0,1.74,3.63l1.73,2.52-7,.07c-1-1.82-1.92-3.65-2.83-5.49-1.35-2.7-2.77-5.39-3.17-8.4A16.61,16.61,0,0,1,334.2,184.33Z"/><path fill="#ffa18a" d="M383.7,169.72a12,12,0,0,0,1.75-2c.88-1.93.54-3.75,1.75-5.34l14,1.28.19.2a14.12,14.12,0,0,1,2.27,5.59,19.75,19.75,0,0,1,.2,7.15c-.11.65-.64,3-1.57,3.68,0,.77-.07,1.53-.09,2.31a20,20,0,0,1-.12,2.68l-14.22-1.29q.08-1.5.27-3a5.78,5.78,0,0,1-2.71-5.65,4.07,4.07,0,0,0-1.3-3.56c-.41-.37-.79-.66-.73-1.28A1.45,1.45,0,0,1,383.7,169.72Z"/><path fill="#1f2730" d="M403.58,340,413,340c.25,1.7,1.28,3.18,1.42,4.9a3.66,3.66,0,0,1-2.12,3.64,9.42,9.42,0,0,1-2.68.56,28.08,28.08,0,0,1-3.28.35,2.68,2.68,0,0,1-3-2.51,19.56,19.56,0,0,1,.41-3.32A13.27,13.27,0,0,0,403.58,340Z"/><path fill="#4c749f" d="M402.66,340a121.75,121.75,0,0,0-.44-16.32c-.69-6.24-2.78-12.18-3.11-18.48-.18-3.35-6.94-31.26-8.8-37.32-2,7.21-3.88,14.43-6.36,21.46a42.79,42.79,0,0,0-1.87,11.46c-.25,3.62-.6,7.22-1.08,10.8-1,7.6-6.23,28.37-6.31,28.62l-10.31.08c.22-7.08,2.68-28.3,2.34-32.09s-1.14-40.85,2.44-55.36l40.18-.3c.93,6.54,2,13.08,2.4,19.66.56,7.91-.31,15.81-.26,23.71s1.92,15.49,2.46,23.34a176,176,0,0,1-.12,20.67Z"/><path fill="#9bc5f2" d="M414.71,192.61c-3-3-7.1-3.63-10.45-5.86a16.31,16.31,0,0,0-1.24-2.61c-.56-.53-15.24-.53-15.51-.24a10.61,10.61,0,0,0-2.1,3.18,11.09,11.09,0,0,1-3.4,1.14,23,23,0,0,0-4.28,1.17A42.75,42.75,0,0,0,372,192v20.79h0c1.66,34.87-7.65,35.73-8.26,78.81a127,127,0,0,0,26.48,3.18L392,280.49l1.79,14.23a118.62,118.62,0,0,0,20.65-2.17c1.62-11.48-.21-34.23-1.86-45.52-1.3-8.93-.72-15.93-.43-21.75s3.35-16.41,4.18-19.39C417.58,201.28,418.17,196.08,414.71,192.61Z"/><path fill="#9bc5f2" d="M373.06,209.86l1.87-19.17c-.73.25-1.44.51-2.14.82a41.28,41.28,0,0,0-8,5,64.41,64.41,0,0,1-8.05,5.46,36.47,36.47,0,0,1-6.76,2.78c-.81-1.87-4.76-6.45-4.76-6.45a9.46,9.46,0,0,1-6.38,3.65c.08,2.16.15,4.33.25,6.49.15,3.37.86,6.5,5.47,8.45a4.67,4.67,0,0,0,1.09.31c2.93.47,6-.47,8.85-1.48s5.81-2.33,8.76-3.32a34.37,34.37,0,0,1,4.53-1.2C368.7,211.09,372.19,210,373.06,209.86Z"/><path fill="#1f2730" d="M374.29,340.23l-9.39.06c-.23,1.71-1.24,3.21-1.35,4.93a3.65,3.65,0,0,0,2.18,3.61,9,9,0,0,0,2.68.52,27.93,27.93,0,0,0,3.29.3,2.66,2.66,0,0,0,2.94-2.55,19.42,19.42,0,0,0-.46-3.3A14.22,14.22,0,0,1,374.29,340.23Z"/><path fill="#a55852" d="M407.05,164.2a8.82,8.82,0,0,0-4-7.83,9.41,9.41,0,0,0-4.41-1.47c-1.94-.16-3.84.38-5.78.27-3.1-.15-6.59-.83-8.35,2.41a10.41,10.41,0,0,0-1.17,4.7,3.6,3.6,0,0,0,1.05,2.3c.84,1.68,2.51,3.31,3.13,4.91a27.28,27.28,0,0,1,1.67,4.28c.27,1.3.07,2.63.31,3.93.43,2.35,2.77,3.31,4.64,4.43a2.84,2.84,0,0,0,2.83.2c1.25-.44,2.62-.44,3.84-.93,4-1.62,5.22-6.76,5.29-10.85,0-.17.06-.35.1-.52A46,46,0,0,0,407.05,164.2Z"/><path fill="#77b2f2" d="M393.55,187.8a89.75,89.75,0,0,0,9.88-.59.08.08,0,0,0,.08-.09.11.11,0,0,0-.09-.08h0c-.11,0-10.63,1.32-17.37,0a.1.1,0,0,0-.1.07s0,.1.06.1A40.49,40.49,0,0,0,393.55,187.8Z"/><path fill="#83b9f3" d="M392.21,242.53a64.44,64.44,0,0,0,16.55-2.18A1.73,1.73,0,0,0,410,238.2a1.76,1.76,0,0,0-2.16-1.19c-.17.06-17,4.83-30.56-.52a1.74,1.74,0,0,0-1.28,3.23A44.35,44.35,0,0,0,392.21,242.53Z"/><path fill="#f3f8fd" d="M258.45,127.11a1.92,1.92,0,0,1-1.92-1.92v-88a2.2,2.2,0,0,1,2.2-2.21H388.45a2.22,2.22,0,0,1,2.21,2.21v88a1.93,1.93,0,0,1-1.93,1.92Z" opacity=".7"/><path fill="#9bc5f2" d="M388.45,34H258.73a3.15,3.15,0,0,0-3.15,3.15v88a2.87,2.87,0,0,0,2.87,2.86H388.73a2.87,2.87,0,0,0,2.87-2.86v-88A3.15,3.15,0,0,0,388.45,34Zm1.26,91.16a1,1,0,0,1-1,1H258.45a1,1,0,0,1-1-1v-88a1.25,1.25,0,0,1,1.26-1.26H388.45a1.26,1.26,0,0,1,1.26,1.26Z"/><path fill="#ffb747" d="M351.3,56.71a45.67,45.67,0,0,0-4.7-2.6,34.33,34.33,0,0,1-4.94-.51,31.65,31.65,0,0,1-11.84-5.15,56.24,56.24,0,0,0-18.62-.79,29.86,29.86,0,0,1-3.33,2.12,22,22,0,0,1-13,2.21A50,50,0,0,0,277,64.33c-7.5,8.32-11.19,19.73-5.8,30.2,5.12,9.94,16.66,13.84,26.88,16A105.23,105.23,0,0,0,334,112.06c10.37-1.44,20.51-5,28.12-12.43,3.36-3.28,6-7.42,6.51-12.06a22,22,0,0,0,.26-3.92C368.53,72.37,360.44,62.55,351.3,56.71Z"/><path fill="#ffc975" d="M342.62,92.57a1.25,1.25,0,0,0,1.23-1.23c.09-3.63-2.09-7.31-3.56-10.52-.84-1.83-1.73-3.64-2.64-5.43-.45-.89-.89-1.8-1.43-2.65s-1.42-1.79-2-2.74a2.74,2.74,0,0,1-.47-1.88c.12-.43.86-1,1.17-1.24.61-.58,1.24-1.15,1.89-1.7,1.28-1.11,2.6-2.18,3.9-3.28a33.23,33.23,0,0,0,6.94-7.22c-.37-.19-.73-.39-1.1-.57a34.33,34.33,0,0,1-4.94-.51,31.65,31.65,0,0,1-11.84-5.15q-.78-.16-1.56-.3c-.07.09-.14.19-.22.28-.62.78-1.27,1.54-2,2.25a12.83,12.83,0,0,1-4.83,3.38,4.47,4.47,0,0,1-3,.25,5.66,5.66,0,0,1-2.22-1.9c-.78-.95-1.48-2-2.25-2.92-.53-.66-1.14-1.28-1.71-1.92l-.84.09a29.86,29.86,0,0,1-3.33,2.12,22,22,0,0,1-13,2.21l-.73.32a.68.68,0,0,0,.23.28c1.7,1.28,3.4,2.61,5,4,1.22,1,4.67,3.15,4.13,5-.22.75-1.38,1.59-1.88,2.22S300.51,65.23,300,66c-1.15,1.58-2.25,3.2-3.31,4.84a98.93,98.93,0,0,0-10.17,20.76c-.37,1.06,1.09,1.8,1.84,1.06a79.66,79.66,0,0,1,13.74-10.56c2.32-1.46,4.68-2.85,7.07-4.2a61.12,61.12,0,0,1,7.55-4c3.08-1.21,5.51-.31,7.83,1.87,2,1.91,3.9,4,5.84,6l6.24,6.4C338.31,90,340,92.39,342.62,92.57Z" opacity=".31"/><g opacity=".41"><path fill="#ffb747" d="M312.22,61.38c-.27-4-4-6.91-6.82-9.21l-1.14-.93a22.51,22.51,0,0,1-9.41.75l-.73.32a.68.68,0,0,0,.23.28c1.7,1.28,3.4,2.61,5,4,1.22,1,4.67,3.15,4.13,5-.22.75-1.38,1.59-1.88,2.22S300.51,65.23,300,66c-1.15,1.58-2.25,3.2-3.31,4.84a99.17,99.17,0,0,0-10.17,20.76,1,1,0,0,0,1,1.34A80.71,80.71,0,0,1,298,78.08a108.6,108.6,0,0,1,8.08-8.26C308.5,67.58,312.49,65.18,312.22,61.38Z" opacity=".2"/><path fill="#ffb747" d="M343.85,91.34a14.69,14.69,0,0,0-1.46-6c-.6-.5-1.2-1-1.79-1.54a107.55,107.55,0,0,0-9-7.81A26,26,0,0,0,326,72.81c-2.05-.82-4.43-1.42-6.43-.15a1,1,0,0,0-.42.72,7.43,7.43,0,0,1,5.4,2.39c2,1.91,3.9,4,5.84,6l6.24,6.4c1.71,1.76,3.38,4.2,6,4.38A1.25,1.25,0,0,0,343.85,91.34Z" opacity=".31"/><path fill="#ffb747" d="M334.83,51.33a34.44,34.44,0,0,1-5-2.88q-.78-.16-1.56-.3c-.07.09-.14.19-.22.28-.62.78-1.27,1.54-2,2.25a12.83,12.83,0,0,1-4.83,3.38,7.88,7.88,0,0,1-.9.27,11.83,11.83,0,0,0,3.42.63,18,18,0,0,0,5.06-.66A18.81,18.81,0,0,0,334.83,51.33Z" opacity=".31"/></g><path fill="#ffa519" d="M303.14,61.24a49.21,49.21,0,0,0-3.7,4.22c-1.13,1.29-2.22,2.56-3.24,4a79.71,79.71,0,0,0-6,9.31,56.21,56.21,0,0,0-4.16,9.9c-.41,1.36-1.3,3.58-.49,4.94.6,1,2.44,1.38,2.76-.06a.72.72,0,0,0-.5-.87c-.43-.08-.19-.09-.21-.32a3.25,3.25,0,0,1,.29-1c.21-.72.44-1.43.66-2.14.44-1.42.94-2.83,1.5-4.21a76.61,76.61,0,0,1,3.88-8.13c1.45-2.63,3.06-5.17,4.74-7.67.79-1.19,1.47-2.48,2.34-3.61a35.94,35.94,0,0,0,2.67-3.83C303.94,61.34,303.42,61,303.14,61.24Z"/><path fill="#ffa519" d="M341,91.65c-.19-1-1.33-1.68-2-2.29-.92-.8-1.86-1.56-2.76-2.38-1.75-1.6-3.42-3.29-5.13-4.94A73.94,73.94,0,0,0,320.32,73c-.65-.43-1.48.6-.85,1.1a104.49,104.49,0,0,1,10.33,9.74q2.43,2.49,5,4.82c.89.81,1.79,1.62,2.74,2.35.76.57,1.86,1.58,2.87,1.45A.64.64,0,0,0,341,91.65Z"/><path fill="#ffa519" d="M345,57c-1.32.66-2.27,2-3.38,3s-2.42,1.93-3.63,2.89a17.85,17.85,0,0,0-3.4,3.21c-.88,1.16-1.38,2.89-.46,4.18a.69.69,0,0,0,1.25-.53h0c-.53-1.42.42-2.55,1.42-3.48s2.21-1.87,3.35-2.76,2.24-1.72,3.28-2.68,2.11-2,2.26-3.4C345.77,57.06,345.31,56.89,345,57Z"/><path fill="#ffa519" d="M323.48,52.28a2.5,2.5,0,0,0-1.29.21,8.56,8.56,0,0,1-1.51.2,4,4,0,0,1-3.07-.48c-.89-.66-1.61-1.55-2.45-2.29s-1.94-1.67-3-2.45c-.5-.38-1.18.49-.68.88a34.72,34.72,0,0,0,2.88,3.3,12.48,12.48,0,0,0,2.9,2.53,5.72,5.72,0,0,0,3.79.12c.9-.2,2.55-.61,2.62-1.73A.29.29,0,0,0,323.48,52.28Z"/><path fill="#fca33b" d="M358.7,62.63A27.86,27.86,0,0,1,357.52,83,28.88,28.88,0,0,1,340,98.25c-8.24,2.71-17.24,3-25.84,3-9.2.11-18.53-.6-27.27-3.66A44.46,44.46,0,0,1,268.71,86a22.82,22.82,0,0,0,2.47,8.52c5.12,9.94,16.66,13.84,26.88,16A105.23,105.23,0,0,0,334,112.06c10.37-1.44,20.51-5,28.12-12.43,3.36-3.28,6-7.42,6.51-12.06a22,22,0,0,0,.26-3.92C368.62,75.59,364.41,68.28,358.7,62.63Z" opacity=".1"/><g style="mix-blend-mode:screen" opacity=".21"><path fill="#fca33b" d="M296.06,62.63a3.73,3.73,0,0,0-3.8-2.88c-2.43,0-4.68,1.47-6.45,3.1a12.89,12.89,0,0,0-1.59,1.1,12.33,12.33,0,0,0-2.52,2.78,9.24,9.24,0,0,0-1.56,3.51A3,3,0,0,0,281,73a3.14,3.14,0,0,0,2.68.72,11,11,0,0,0,3.82-1.6,29.88,29.88,0,0,0,6.37-5.17C295,65.73,296.41,64.49,296.06,62.63Z"/><path fill="#fca33b" d="M280.29,77.89a1.41,1.41,0,0,0-.15-.7,1.34,1.34,0,0,0-.38-.58,2.09,2.09,0,0,0-.29-.23l0,0-.08-.09a2.81,2.81,0,0,0-.44-.33,2.7,2.7,0,0,0-.53-.22,2.49,2.49,0,0,0-.59-.09,2.89,2.89,0,0,0-.72.07,3.39,3.39,0,0,0-.71.28,3.91,3.91,0,0,0-.86.6A2.73,2.73,0,0,0,275,77a5,5,0,0,0-1.22,3.09,1.83,1.83,0,0,0,2,1.8l.19,0a2.62,2.62,0,0,0,.88,0,3.29,3.29,0,0,0,.68-.26,2.85,2.85,0,0,0,.55-.35,5.6,5.6,0,0,0,.79-.67,5.89,5.89,0,0,0,.65-.84,3.85,3.85,0,0,0,.36-.77c.05-.08.11-.15.15-.23A1.73,1.73,0,0,0,280.29,77.89Z"/></g><path fill="#fff" d="M337.82,113a0,0,0,0,0,0,.08A0,0,0,1,0,337.82,113Z"/><path fill="#f66282" d="M337.78,119.86a2.77,2.77,0,0,1-2.36-4.21l18.2-29.87a2.76,2.76,0,0,1,4.72,0l18.19,29.87a2.75,2.75,0,0,1,.06,2.8,2.78,2.78,0,0,1-2.42,1.41Z"/><path fill="#f6c4cf" d="M356,110.3h0a1.27,1.27,0,0,0,1.27-1.27V94.77A1.27,1.27,0,0,0,356,93.51h0a1.26,1.26,0,0,0-1.27,1.26V109A1.27,1.27,0,0,0,356,110.3Z"/><path fill="#f6c4cf" d="M354.58,114.28a1.4,1.4,0,1,0,1.4-1.4A1.4,1.4,0,0,0,354.58,114.28Z"/></g></svg>