<svg id="_icon-20-bellOn" data-name="#icon-20-bellOn" xmlns="http://www.w3.org/2000/svg" xmlns:xlink="http://www.w3.org/1999/xlink" width="20" height="20" viewBox="0 0 20 20">
  <defs>
    <clipPath id="clip-path">
      <rect id="長方形_13523" data-name="長方形 13523" width="20" height="20" transform="translate(32 12)" fill="#fff"/>
    </clipPath>
  </defs>
  <g id="マスクグループ_6549" data-name="マスクグループ 6549" transform="translate(-32 -12)" clip-path="url(#clip-path)">
    <rect id="長方形_13525" data-name="長方形 13525" width="20" height="20" transform="translate(32 12)" fill="#fff" opacity="0"/>
    <g id="グループ_18390" data-name="グループ 18390" transform="translate(-494.998 -121)">
      <path id="notification_add_FILL0_wght300_GRAD0_opsz24" d="M187.815-840a1.811,1.811,0,0,1-1.33-.553,1.816,1.816,0,0,1-.552-1.33H189.7a1.812,1.812,0,0,1-.554,1.332A1.818,1.818,0,0,1,187.815-840ZM180-842.925v-1.563h1.884v-7.776a5.768,5.768,0,0,1,1.3-3.717,5.75,5.75,0,0,1,3.332-2.066v-.649a1.257,1.257,0,0,1,.38-.923,1.254,1.254,0,0,1,.922-.38,1.258,1.258,0,0,1,.923.38,1.255,1.255,0,0,1,.381.923v.644a9.152,9.152,0,0,1,.888.27,4.162,4.162,0,0,1,.807.394,4.218,4.218,0,0,0-.445.649q-.188.339-.356.7a4.5,4.5,0,0,0-1.039-.44,4.217,4.217,0,0,0-1.158-.157,4.209,4.209,0,0,0-3.089,1.28,4.209,4.209,0,0,0-1.28,3.089v7.776h8.738v-3.4a6.766,6.766,0,0,0,.73.5,4.212,4.212,0,0,0,.833.378v2.525h1.884v1.563ZM187.817-850.56Z" transform="translate(347.996 992.999)" fill="#fff"/>
      <g id="楕円形_1167" data-name="楕円形 1167" transform="translate(538.5 136)" fill="#eb424f" stroke="#fff" stroke-width="1.5">
        <circle cx="4.25" cy="4.25" r="4.25" stroke="none"/>
        <circle cx="4.25" cy="4.25" r="3.5" fill="none"/>
      </g>
    </g>
  </g>
</svg>
